<svg xmlns="http://www.w3.org/2000/svg" xmlns:xlink="http://www.w3.org/1999/xlink" width="500" zoomAndPan="magnify" viewBox="0 0 375 374.999991" height="500" preserveAspectRatio="xMidYMid meet" version="1.0"><defs><clipPath id="2e0da2ab01"><path d="M 0 9.140625 L 375 9.140625 L 375 366.140625 L 0 366.140625 Z M 0 9.140625 " clip-rule="nonzero"/></clipPath></defs><g clip-path="url(#2e0da2ab01)"><path fill="#233dff" d="M 126.0625 310.910156 C 136 310.910156 144.054688 318.972656 144.054688 328.921875 C 144.054688 338.867188 136 346.925781 126.0625 346.925781 C 116.125 346.925781 108.070312 338.867188 108.070312 328.921875 C 108.070312 318.972656 116.125 310.910156 126.0625 310.910156 Z M 248.933594 64.316406 C 239.003906 64.316406 230.941406 56.257812 230.941406 46.3125 C 230.941406 36.367188 239.003906 28.304688 248.933594 28.304688 C 258.871094 28.304688 266.929688 36.367188 266.929688 46.3125 C 266.929688 56.257812 258.871094 64.316406 248.933594 64.316406 Z M 374.835938 186.351562 C 374.746094 172.457031 337.519531 157.847656 337.519531 145.175781 C 337.519531 134.882812 338.703125 124.191406 339.890625 113.097656 C 341.476562 102.414062 342.664062 91.328125 342.664062 81.03125 C 342.664062 44.210938 318.921875 28.375 283.714844 28.375 L 281.488281 28.375 C 275.160156 16.898438 262.957031 9.125 248.933594 9.125 C 228.414062 9.125 211.777344 25.777344 211.777344 46.3125 C 211.777344 66.851562 228.414062 83.503906 248.933594 83.503906 C 265.796875 83.503906 280.027344 72.257812 284.574219 56.859375 C 301.148438 59.003906 307.054688 70.066406 307.054688 87.367188 C 307.054688 95.285156 305.867188 103.996094 304.285156 112.703125 C 303.492188 121.421875 301.910156 130.523438 301.910156 141.214844 C 301.519531 168.929688 333.496094 172.265625 333.5625 185.972656 C 333.625 199.753906 301.519531 203.375 301.910156 231.09375 C 301.910156 241.785156 303.492188 251.289062 304.285156 259.996094 C 305.867188 268.707031 307.054688 277.023438 307.054688 284.945312 C 307.054688 298.601562 303.285156 308.109375 294.453125 312.828125 L 102.761719 28.375 L 86.242188 28.375 L 86.0625 28.492188 C 53.75 30.023438 32.339844 46.0625 32.339844 81.03125 C 32.339844 91.328125 33.527344 102.414062 35.109375 113.097656 C 36.292969 124.191406 37.480469 134.882812 37.480469 145.175781 C 37.480469 157.839844 0.253906 172.457031 0.164062 186.351562 C 0.0742188 200.179688 37.480469 215.648438 37.480469 227.136719 C 37.480469 237.425781 36.292969 247.722656 35.109375 258.414062 C 33.527344 269.101562 32.339844 280.191406 32.339844 290.089844 C 32.339844 330.078125 56.867188 344.335938 91.289062 344.335938 L 92.246094 344.335938 C 98.101562 357.175781 111.035156 366.105469 126.0625 366.105469 C 146.585938 366.105469 163.222656 349.457031 163.222656 328.921875 C 163.222656 308.378906 146.585938 291.730469 126.0625 291.730469 C 110.109375 291.730469 96.503906 301.796875 91.238281 315.925781 C 74.683594 314.035156 67.945312 303.195312 67.945312 284.945312 C 67.945312 277.023438 69.132812 268.707031 70.714844 259.996094 C 71.507812 251.289062 73.089844 241.785156 73.089844 231.09375 C 73.484375 203.375 41.378906 199.753906 41.441406 185.972656 C 41.5 172.265625 73.484375 168.929688 73.089844 141.214844 C 73.089844 130.523438 71.507812 121.421875 70.714844 112.703125 C 69.132812 103.996094 67.945312 95.285156 67.945312 87.367188 C 67.945312 74.117188 71.417969 64.523438 80.492188 59.796875 L 272.242188 344.335938 L 283.714844 344.335938 C 318.128906 344.335938 342.664062 330.078125 342.664062 290.089844 C 342.664062 280.191406 341.476562 269.105469 339.890625 258.414062 C 338.703125 247.722656 337.519531 237.425781 337.519531 227.136719 C 337.519531 215.648438 374.925781 200.179688 374.835938 186.351562 " fill-opacity="1" fill-rule="nonzero"/></g></svg>